<svg xmlns="http://www.w3.org/2000/svg" viewBox="-41 164.9 512 512"><defs/><path d="M215 224.9c-57.9 0-105 47.1-105 105 0 35.9 18.1 69 48.5 88.5 31 19.9 69.1 22 104.4 5.7 7.5-3.5 10.8-12.4 7.4-19.9-3.5-7.5-12.4-10.8-19.9-7.4-25.9 11.9-53.5 10.5-75.7-3.7-21.7-13.9-34.7-37.5-34.7-63.2 0-41.4 33.6-75 75-75s75 33.6 75 75c0 8.3-6.7 15-15 15-7.6 0-14.6-5.7-15-14.8v-.2c0-24.8-20.2-45-45-45s-45 20.2-45 45 20.2 45 45 45c11.5 0 22-4.4 30-11.5 8 7.1 18.5 11.5 30 11.5 24.8 0 45-20.2 45-45 0-57.9-47.1-105-105-105zm14.8 107.4c-1.2 7.1-7.3 12.6-14.8 12.6-8.3 0-15-6.7-15-15s6.7-15 15-15c7.7 0 14 5.8 14.9 13.3-.2 1.3-.3 2.7-.1 4.1z"/><path d="M440 361.9c0-3.9-1.6-7.8-4.4-10.6L380 295.7V179.9c0-8.3-6.7-15-15-15H65c-8.3 0-15 6.7-15 15v115.8l-55.6 55.6c-.1.1-.1.1-.1.2-2.8 2.9-4.2 6.7-4.2 10.4v270c0 24.8 20.2 45 45 45h360c24.8 0 45-20.2 45-45l-.1-270zm-60-23.8l23.8 23.8-23.8 23.8v-47.6zM80 301.9v-107h270v220.8l-81.2 81.2H161.2L80 415.7V301.9zm-30 36.2v47.6l-23.8-23.8L50 338.1zM20 625.7V398.1l113.8 113.8L20 625.7zm21.2 21.2l120-120h107.6l120 120H41.2zM410 625.7L296.2 511.9 410 398.1v227.6z"/></svg>
