<svg xmlns="http://www.w3.org/2000/svg" viewBox="-41 164.9 512 512"><defs/><path d="M433 544.6L369.6 479l-.2-.2c-17.6-17.6-46-17.6-63.6 0l-28.9 28.9c-13.3 13.3-34.9 13.3-48.2 0L128 409.6c-13.3-13.3-13.3-34.9 0-48.2l28.9-28.9c17.5-17.5 17.5-46.1 0-63.6l-63.6-63.6c-17.5-17.5-46.1-17.5-63.6 0L8.5 226.5l-1.9 1.9c-63.4 63.4-63.4 166 0 229.5l173.9 171.5c63.3 63.3 165.7 63.5 229.2.2.3-.3 22.8-21 23.2-21.4 17.5-17.5 17.5-46 .1-63.6zM50.9 226.4c5.8-5.8 15.4-5.8 21.2 0l63.6 63.6c5.9 5.9 5.9 15.3 0 21.2l-10.6 10.6L40.3 237l10.6-10.6zm150.8 381.7L27.8 436.6c-49-49-51.3-126.3-8.3-178l84.5 84.5c-22.1 25.1-21.2 63.6 2.8 87.7L207.4 529c24 24 62.4 25 87.6 2.8l84.5 84.5c-52.1 43.4-128.9 40.7-177.8-8.2zm210.1-21.3l-10.1 9.3-85.4-85.4 10.6-10.6c5.8-5.8 15.3-5.9 21.1-.1.1.1 63.4 65.6 63.5 65.7 5.9 5.8 6 15.2.3 21.1zM216 164.9c-8.3 0-15 6.7-15 15s6.7 15 15 15c124.1 0 225 100.9 225 225 0 8.3 6.7 15 15 15s15-6.7 15-15c0-140.9-114-255-255-255z"/><path d="M216 224.9c-8.3 0-15 6.7-15 15s6.7 15 15 15c91 0 165 74 165 165 0 8.3 6.7 15 15 15s15-6.7 15-15c0-107.5-87.5-195-195-195z"/><path d="M216 284.9c-8.3 0-15 6.7-15 15s6.7 15 15 15c57.9 0 105 47.1 105 105 0 8.3 6.7 15 15 15s15-6.7 15-15c0-74.4-60.5-135-135-135z"/><path d="M216 344.9c-8.3 0-15 6.7-15 15s6.7 15 15 15c24.8 0 45 20.2 45 45 0 8.3 6.7 15 15 15s15-6.7 15-15c0-41.4-33.6-75-75-75z"/></svg>
