<svg xmlns="http://www.w3.org/2000/svg" viewBox="-41 164.9 512 512"><defs/><path d="M426 210.9H124c-24.8 0-45 20.2-45 45v15H64c-24.8 0-45 20.2-45 45v15H4c-24.9 0-45 20.3-45 45v210c0 24.8 20.2 45 45 45h300c24.7 0 45-20.1 45-45v-15h17c24.8 0 45-20.2 45-45v-15h15c24.8 0 45-20.2 45-45v-210c0-24.8-20.2-45-45-45zm-129.6 150L164.7 493.8c-5.9 5.9-15.4 5.9-21.3 0L11.7 360.9h284.7zM-11 579.7v-199l99 100-99 99zm21.2 21.2l98.9-98.9 12.9 13c17.6 17.8 46.3 17.8 63.9 0l12.9-13 98.9 98.9H10.2zM319 579.7l-99-99 99-100v199zm62-53.8c0 8.3-6.7 15-15 15h-17v-165c0-24.7-20.1-45-45-45H49v-15c0-8.3 6.7-15 15-15h302c8.3 0 15 6.7 15 15v210zm60-60c0 8.3-6.7 15-15 15h-15v-165c0-24.8-20.2-45-45-45H109v-15c0-8.3 6.7-15 15-15h302c8.3 0 15 6.7 15 15v210z"/></svg>
