<svg xmlns="http://www.w3.org/2000/svg" viewBox="-41 164.9 512 512"><defs/><path d="M215 164.9c-141.4 0-256 114.6-256 256s114.6 256 256 256 256-114.6 256-256-114.6-256-256-256zm-74.4 387H78.3V364.3h62.3v187.6zm-31.2-213.2h-.4c-20.9 0-34.5-14.4-34.5-32.4 0-18.4 13.9-32.4 35.3-32.4s34.5 14 34.9 32.4c0 18-13.5 32.4-35.3 32.4zm256 213.2h-62.3V451.5c0-25.2-9-42.4-31.6-42.4-17.2 0-27.5 11.6-32 22.8-1.6 4-2.1 9.6-2.1 15.2v104.8h-62.3s.8-170 0-187.6h62.3v26.6c8.3-12.8 23.1-31 56.2-31 41 0 71.8 26.8 71.8 84.4v107.6z"/></svg>
