<svg xmlns="http://www.w3.org/2000/svg" viewBox="-41 164.9 512 512"><defs/><path d="M410.9 385C408.3 263.1 307 164.9 184 164.9c-124.4 0-225 100.6-225 225s100.6 225 225 225c42.3 0 84-11.6 119.2-33l49.7 87.4c5.7 10.1 20.3 10.1 26.1 0l79.4-139.6c.1-.1.1-.2.2-.3 8.1-15.1 12.4-32.2 12.4-49.5 0-41.8-24.6-78-60.1-94.9zM111.8 208.7c-15.7 22-26.8 48.9-34.1 74.9-25.9 7.2-52.9 18.3-74.9 34 19.9-49.4 59.5-89 109-108.9zM70.2 317.4c-3.2 18.4-5.2 37.7-5.9 57.5H-8c11.4-28.3 49.2-47.5 78.2-57.5zm-5.9 87.5c.7 19.8 2.7 39.1 5.9 57.5-29-10-66.8-29.1-78.1-57.5h72.2zM2.8 462.1c22 15.8 49 26.8 74.9 34 7.3 26.1 18.3 53 34.1 74.9-49.5-19.8-89.1-59.4-109-108.9zM169 581.9c-28.3-11.3-47.5-49.2-57.5-78.1 18.4 3.2 37.7 5.2 57.5 5.9v72.2zm0-102.3c-23.3-.8-45.7-3.6-66.5-8.2-4.6-20.8-7.4-43.2-8.2-66.5H169v74.7zm0-104.7H94.3c.8-23.3 3.6-45.7 8.2-66.5 20.8-4.6 43.2-7.4 66.5-8.2v74.7zm0-104.7c-19.8.7-39.1 2.7-57.5 5.9 10-29 29.1-66.8 57.5-78.1v72.2zm198.2 48c-22.1-15.8-49.4-27-75.4-34.3-7.5-26.3-19-53.3-35-75.3 50.3 20 90.5 59.8 110.4 109.6zm10.7 56.7h-72.2c-.7-19.6-2.7-38.8-6.1-57.1 28.8 10 66.8 29.1 78.3 57.1zM199 197.9c28.8 11.3 48.6 49.4 58.9 78.4-18.9-3.4-38.6-5.4-58.9-6.1v-72.3zm0 102.3c23.8.9 46.9 3.8 68.2 8.5 4.7 20.8 7.6 43.1 8.5 66.2H199v-74.7zm76.7 104.5c-.3 8.2-.8 16.5-1.6 24.5-7.2 13-11.8 27.8-12.8 43.5-19.3 3.8-40.7 6.2-62.3 7v-74.9h76.7zM199 582v-72.3c20.3-.7 40.6-2.7 59.4-6-14.1 40.4-36.2 69.3-59.4 78.3zm58.2-10.8c7.5-10.1 14.3-21.8 20.3-34.6l10.9 19.2c-9.9 6.1-20.3 11.2-31.2 15.4zm175.1-56.1L366 631.6l-64.6-113.5c0-.1-.1-.1-.1-.2-6.8-11.5-10.3-24.6-10.3-38 0-41.4 33.6-75 75-75s75 33.6 75 75c0 12.3-3 24.4-8.7 35.2z"/><path d="M366 434.9c-24.8 0-45 20.2-45 45s20.2 45 45 45 45-20.2 45-45-20.2-45-45-45zm0 60c-8.3 0-15-6.7-15-15s6.7-15 15-15 15 6.7 15 15-6.7 15-15 15z"/></svg>
