<?xml version="1.0" encoding="utf-8"?>
<!-- Generator: Adobe Illustrator 19.0.0, SVG Export Plug-In . SVG Version: 6.00 Build 0)  -->
<svg version="1.1" baseProfile="tiny" id="Warstwa_1"
	 xmlns="http://www.w3.org/2000/svg" xmlns:xlink="http://www.w3.org/1999/xlink" x="0px" y="0px" viewBox="0 0 640 235.5"
	 xml:space="preserve">
<g>
	<path fill="#B50A0A" d="M231.5,114h-13.1V48h13.1V114z M257.6,114h-13.3V48.1h13.3l39.7,22.8V48.1h13.3V114h-13.3V86l-39.7-22.8
		V114z M345.9,61.1h-26.3V48.2h65.8v12.9h-26.3V114h-13.2V61.1z M460.4,114h-65.9V48.1h65.9v13h-52.9v13H435v13.3h-27.5v13.3h52.9
		V114z M486.7,114h-13.3V48h46.2c2.8,0.4,5.4,1.2,7.8,2.5c2.4,1.3,4.5,2.9,6.3,4.9c1.8,2,3.2,4.2,4.2,6.7c1,2.5,1.5,5,1.5,7.7v1.9
		c0,1.8-0.2,3.6-0.8,5.4c-0.5,1.8-1.2,3.6-2.1,5.2c-0.9,1.6-2,3.1-3.3,4.5c-1.3,1.4-2.6,2.5-4.1,3.4l10.6,23.7h-14.6l-8.8-20h-29.6
		V114z M486.7,60.8v19.9h29.6c1.3,0,2.6-0.2,3.8-0.7c1.2-0.5,2.3-1.2,3.2-2.1c0.9-0.9,1.6-1.9,2.2-3.1c0.5-1.2,0.8-2.5,0.8-3.9
		c0-1.3-0.3-2.5-0.8-3.8c-0.6-1.2-1.3-2.3-2.2-3.2c-0.9-0.9-2-1.7-3.2-2.2c-1.2-0.6-2.4-0.8-3.7-0.8H486.7z M564.5,114h-13V48.1
		h13.3l19.6,19.7l19.8-19.7h13.2V114h-13.2V66.9l-10.6,10.4h0.3l-9.5,9.3l-19.9-19.6V114z M564.5,114"/>
	<path d="M312.4,159h-17.6v-8.6h43.8v8.6h-17.5v35.2h-8.8V159z M353.7,194.3h-8.9v-44h30.8c1.9,0.2,3.6,0.8,5.2,1.7
		c1.6,0.9,3,2,4.2,3.3c1.2,1.3,2.1,2.8,2.8,4.5c0.7,1.7,1,3.4,1,5.1v1.2c0,1.2-0.2,2.4-0.5,3.6c-0.3,1.2-0.8,2.4-1.4,3.5
		c-0.6,1.1-1.4,2.1-2.2,3c-0.8,0.9-1.8,1.7-2.7,2.3l7,15.8h-9.7l-5.8-13.3h-19.7V194.3z M353.7,158.8v13.2h19.7
		c0.9,0,1.8-0.2,2.6-0.5c0.8-0.3,1.5-0.8,2.1-1.4c0.6-0.6,1.1-1.3,1.4-2.1c0.4-0.8,0.5-1.6,0.5-2.6c0-0.9-0.2-1.7-0.6-2.5
		c-0.4-0.8-0.9-1.5-1.5-2.1c-0.6-0.6-1.3-1.1-2.1-1.5c-0.8-0.4-1.6-0.6-2.5-0.6H353.7z M404,194.3h-9.5l17.3-44h9.6l17.4,44h-9.5
		l-2.6-6.5h-19.9L404,194.3z M416.6,162.2l-6.6,16.6h13L416.6,162.2z M453.7,194.3h-8.8v-43.9h8.8l26.5,15.2v-15.2h8.8v43.9h-8.8
		v-18.6l-26.5-15.2V194.3z M496.7,181.1h8.8c0,1.1,0.4,2.2,1.3,3.1c0.9,0.9,1.9,1.4,3.1,1.4h17.8c0.5,0,0.9-0.1,1.5-0.3
		c0.5-0.2,1-0.5,1.4-0.9c0.4-0.4,0.8-0.9,1.1-1.4c0.3-0.6,0.4-1.2,0.4-1.8c0-1.3-0.5-2.4-1.4-3.2c-0.9-0.8-1.9-1.2-3-1.2H510
		c-1.9,0-3.6-0.3-5.3-1c-1.6-0.7-3-1.6-4.2-2.9c-1.2-1.2-2.1-2.6-2.7-4.2c-0.7-1.6-1-3.3-1-5.1c0-1.9,0.3-3.6,1-5.3
		c0.7-1.6,1.6-3,2.8-4.2c1.2-1.2,2.6-2.1,4.2-2.8c1.6-0.7,3.3-1,5.1-1h17.8c1.7,0,3.4,0.3,5,1c1.6,0.6,3,1.6,4.2,2.7
		c1.2,1.2,2.2,2.6,2.9,4.2c0.7,1.6,1.1,3.4,1.1,5.3h-8.8c0-0.7-0.1-1.3-0.4-1.9c-0.3-0.6-0.6-1.1-1-1.5c-0.4-0.4-0.9-0.7-1.4-0.9
		c-0.5-0.2-1-0.4-1.5-0.4H510c-0.6,0-1.1,0.1-1.7,0.4c-0.5,0.3-1,0.6-1.4,1.1c-0.4,0.4-0.7,0.9-1,1.4c-0.2,0.5-0.4,1.1-0.4,1.7
		c0,1.2,0.4,2.2,1.3,3.1c0.9,0.9,1.9,1.3,3.1,1.3h17.8c1.8,0,3.5,0.3,5.1,1c1.6,0.7,3,1.6,4.2,2.8c1.2,1.2,2.1,2.6,2.9,4.2
		c0.7,1.6,1.1,3.4,1.1,5.2c0,1.9-0.4,3.7-1.1,5.3c-0.7,1.6-1.7,3-2.9,4.2c-1.2,1.2-2.6,2.1-4.2,2.7c-1.6,0.7-3.3,1-5,1H510
		c-1.8,0-3.6-0.3-5.2-1c-1.6-0.7-3-1.6-4.2-2.8c-1.2-1.2-2.1-2.6-2.8-4.2C497.1,184.7,496.7,182.9,496.7,181.1L496.7,181.1z
		 M496.7,181.1"/>
	<path fill-rule="evenodd" d="M101.7,55.8L57.9,81.2L33,66.7l67.8-40l70.1,40L145.4,82L101.7,55.8z M101.7,55.8"/>
	<path fill-rule="evenodd" fill="#B50A0A" d="M155.7,116.6l-54,31.2l-53.5-31.2v32.8l53.5,30.5l54-30.5V116.6z M181.4,72.8v90.7
		l-80.6,45.3l-78.2-44.4V72.8l79.4,44.9L181.4,72.8z M181.4,72.8"/>
</g>
</svg>
