<svg xmlns="http://www.w3.org/2000/svg" viewBox="22 303.4 640 235.5"><defs/><path fill="#B50A0A" d="M253.5 417.4h-13.1v-66h13.1v66zm26.1 0h-13.3v-65.9h13.3l39.7 22.8v-22.8h13.3v65.9h-13.3v-28l-39.7-22.8v50.8zm88.3-52.9h-26.3v-12.9h65.8v12.9h-26.3v52.9h-13.2v-52.9zm114.5 52.9h-65.9v-65.9h65.9v13h-52.9v13H457v13.3h-27.5v13.3h52.9v13.3zm26.3 0h-13.3v-66h46.2c2.8.4 5.4 1.2 7.8 2.5 2.4 1.3 4.5 2.9 6.3 4.9s3.2 4.2 4.2 6.7 1.5 5 1.5 7.7v1.9c0 1.8-.2 3.6-.8 5.4-.5 1.8-1.2 3.6-2.1 5.2-.9 1.6-2 3.1-3.3 4.5s-2.6 2.5-4.1 3.4l10.6 23.7h-14.6l-8.8-20h-29.6v20.1zm0-53.2v19.9h29.6c1.3 0 2.6-.2 3.8-.7s2.3-1.2 3.2-2.1 1.6-1.9 2.2-3.1c.5-1.2.8-2.5.8-3.9 0-1.3-.3-2.5-.8-3.8-.6-1.2-1.3-2.3-2.2-3.2-.9-.9-2-1.7-3.2-2.2-1.2-.6-2.4-.8-3.7-.8h-29.7v-.1zm77.8 53.2h-13v-65.9h13.3l19.6 19.7 19.8-19.7h13.2v65.9h-13.2v-47.1l-10.6 10.4h.3l-9.5 9.3-19.9-19.6v47z"/><path d="M334.4 462.4h-17.6v-8.6h43.8v8.6h-17.5v35.2h-8.8v-35.2h.1zm41.3 35.3h-8.9v-44h30.8c1.9.2 3.6.8 5.2 1.7s3 2 4.2 3.3c1.2 1.3 2.1 2.8 2.8 4.5.7 1.7 1 3.4 1 5.1v1.2c0 1.2-.2 2.4-.5 3.6-.3 1.2-.8 2.4-1.4 3.5s-1.4 2.1-2.2 3c-.8.9-1.8 1.7-2.7 2.3l7 15.8h-9.7l-5.8-13.3h-19.7l-.1 13.3zm0-35.5v13.2h19.7c.9 0 1.8-.2 2.6-.5s1.5-.8 2.1-1.4c.6-.6 1.1-1.3 1.4-2.1.4-.8.5-1.6.5-2.6 0-.9-.2-1.7-.6-2.5-.4-.8-.9-1.5-1.5-2.1s-1.3-1.1-2.1-1.5c-.8-.4-1.6-.6-2.5-.6h-19.6v.1zm50.3 35.5h-9.5l17.3-44h9.6l17.4 44h-9.5l-2.6-6.5h-19.9l-2.8 6.5zm12.6-32.1l-6.6 16.6h13l-6.4-16.6zm37.1 32.1h-8.8v-43.9h8.8l26.5 15.2v-15.2h8.8v43.9h-8.8v-18.6l-26.5-15.2v33.8zm43-13.2h8.8c0 1.1.4 2.2 1.3 3.1.9.9 1.9 1.4 3.1 1.4h17.8c.5 0 .9-.1 1.5-.3.5-.2 1-.5 1.4-.9s.8-.9 1.1-1.4c.3-.6.4-1.2.4-1.8 0-1.3-.5-2.4-1.4-3.2-.9-.8-1.9-1.2-3-1.2H532c-1.9 0-3.6-.3-5.3-1-1.6-.7-3-1.6-4.2-2.9-1.2-1.2-2.1-2.6-2.7-4.2-.7-1.6-1-3.3-1-5.1 0-1.9.3-3.6 1-5.3.7-1.6 1.6-3 2.8-4.2 1.2-1.2 2.6-2.1 4.2-2.8 1.6-.7 3.3-1 5.1-1h17.8c1.7 0 3.4.3 5 1 1.6.6 3 1.6 4.2 2.7 1.2 1.2 2.2 2.6 2.9 4.2s1.1 3.4 1.1 5.3h-8.8c0-.7-.1-1.3-.4-1.9-.3-.6-.6-1.1-1-1.5s-.9-.7-1.4-.9c-.5-.2-1-.4-1.5-.4H532c-.6 0-1.1.1-1.7.4-.5.3-1 .6-1.4 1.1-.4.4-.7.9-1 1.4-.2.5-.4 1.1-.4 1.7 0 1.2.4 2.2 1.3 3.1.9.9 1.9 1.3 3.1 1.3h17.8c1.8 0 3.5.3 5.1 1 1.6.7 3 1.6 4.2 2.8 1.2 1.2 2.1 2.6 2.9 4.2.7 1.6 1.1 3.4 1.1 5.2 0 1.9-.4 3.7-1.1 5.3-.7 1.6-1.7 3-2.9 4.2-1.2 1.2-2.6 2.1-4.2 2.7-1.6.7-3.3 1-5 1H532c-1.8 0-3.6-.3-5.2-1s-3-1.6-4.2-2.8c-1.2-1.2-2.1-2.6-2.8-4.2-.7-1.5-1.1-3.3-1.1-5.1zM123.7 359.2l-43.8 25.4L55 370.1l67.8-40 70.1 40-25.5 15.3-43.7-26.2z"/><path fill="#B50A0A" d="M177.7 420l-54 31.2L70.2 420v32.8l53.5 30.5 54-30.5V420zm25.7-43.8v90.7l-80.6 45.3-78.2-44.4v-91.6l79.4 44.9 79.4-44.9z"/></svg>
