<svg xmlns="http://www.w3.org/2000/svg" viewBox="-41 164.9 512 512"><path fill="#B50A0A" d="M54.8 509.6c-4.2 0-7.5 3.4-7.5 7.5s3.4 7.5 7.5 7.5 7.5-3.4 7.5-7.5c0-4.2-3.4-7.5-7.5-7.5zM118.9 509.6c-4.2 0-7.5 3.4-7.5 7.5s3.4 7.5 7.5 7.5 7.5-3.4 7.5-7.5c0-4.2-3.4-7.5-7.5-7.5zM383.4 509.6c-4.2 0-7.5 3.4-7.5 7.5s3.4 7.5 7.5 7.5 7.5-3.4 7.5-7.5c0-4.2-3.3-7.5-7.5-7.5z"/><path fill="#B50A0A" d="M464.1 418.9L454 408.8l-20.3-60.9c3-1 5.2-3.8 5.2-7.1 0-4.1-3.4-7.5-7.5-7.5h-72.7v-32.6c0-8.6-7-15.5-15.5-15.5H-25.5c-8.6 0-15.5 7-15.5 15.5V477c0 8.6 7 15.5 15.5 15.5h8.5V509c0 8.6 7 15.5 15.5 15.5h17.3c3.5 18.2 19.6 32.1 38.8 32.1 13.2 0 24.9-6.5 32.1-16.4 7.2 9.9 18.9 16.4 32.1 16.4 19.3 0 35.3-13.8 38.8-32.1h186.8c3.5 18.2 19.6 32.1 38.8 32.1 21.8 0 39.6-17.7 39.6-39.6v-.5h32.6c8.6 0 15.5-7 15.5-15.5v-65.5c.1-6.2-2.3-12.1-6.8-16.6zM15.8 509.6H-1.4c-.3 0-.5-.2-.5-.5v-16.5h25.6c-3.9 4.8-6.6 10.6-7.9 17zm38.9 32c-13.5 0-24.6-11-24.6-24.6 0-13.5 10.9-24.5 24.4-24.6h.3c13.5.1 24.4 11.1 24.4 24.6 0 13.6-11 24.6-24.5 24.6zm64.1 0c-13.5 0-24.6-11-24.6-24.6 0-13.5 10.9-24.5 24.4-24.6h.3c13.5.1 24.4 11.1 24.4 24.6.1 13.6-10.9 24.6-24.5 24.6zm225.7-32H157.6c-1.2-6.4-4-12.2-7.9-17.1h145.4c4.1 0 7.5-3.4 7.5-7.5s-3.4-7.5-7.5-7.5H-25.5c-.3 0-.5-.2-.5-.5V300.7c0-.3.2-.5.5-.5h368.7c.3 0 .5.2.5.5v176.9h-16.5c-4.1 0-7.5 3.4-7.5 7.5s3.4 7.5 7.5 7.5h25.1c-3.8 4.8-6.6 10.6-7.8 17zm95.2-96.2h-48.4c-.3 0-.5-.2-.5-.5v-32.6h37.9l11 33.1zm-56.4 128.2c-13.5 0-24.6-11-24.6-24.6 0-13.5 10.9-24.5 24.4-24.6H383.4c13.5 0 24.5 11 24.5 24.6 0 13.6-11 24.6-24.6 24.6zm72.7-40.5c0 .3-.2.5-.5.5h-35.8c-6-14.1-20.1-24.1-36.4-24.1H358.7V348.7c0-.3.2-.5.5-.5H418l5.7 17.1h-40.4c-4.1 0-7.5 3.4-7.5 7.5v40.1c0 8.6 7 15.5 15.5 15.5h61l1.1 1.1c1.6 1.6 2.5 3.8 2.5 6v17.9h-8.5c-4.1 0-7.5 3.4-7.5 7.5s3.4 7.5 7.5 7.5h8.5v32.7z"/><path fill="#B50A0A" d="M319.2 445.5H-1.4c-4.1 0-7.5 3.4-7.5 7.5s3.4 7.5 7.5 7.5h320.6c4.1 0 7.5-3.4 7.5-7.5 0-4.2-3.3-7.5-7.5-7.5z"/></svg>
