<svg xmlns="http://www.w3.org/2000/svg" viewBox="-41 164.9 512 512"><path fill="#B50A0A" d="M471 574.5v-17.1c0-9.4-7.6-17.1-17.1-17.1h-44.2c1-2.7 1.5-5.6 1.6-8.5V378.2c0-6.3-2.4-12.4-6.7-17.1 4.3-4.7 6.6-10.7 6.7-17.1V190.5c0-14.1-11.5-25.6-25.6-25.6H232.1c-6.3 0-12.4 2.4-17.1 6.7-4.7-4.3-10.7-6.6-17.1-6.7H44.3c-14.1 0-25.6 11.5-25.6 25.6v153.6c0 6.3 2.4 12.4 6.7 17.1-4.3 4.7-6.6 10.7-6.7 17.1v153.6c0 2.9.6 5.8 1.6 8.5h-44.2c-9.4 0-17.1 7.6-17.1 17.1v17.1c0 9.4 7.6 17.1 17.1 17.1v34.1c-9.4 0-17.1 7.6-17.1 17.1V660c0 9.4 7.6 17.1 17.1 17.1H454c9.4 0 17.1-7.6 17.1-17.1v-17.1c0-9.4-7.6-17.1-17.1-17.1v-34.1c9.4-.2 17-7.8 17-17.2zm-247.5-384c0-4.7 3.8-8.5 8.5-8.5h153.6c4.7 0 8.5 3.8 8.5 8.5v8.5H223.5v-8.5zm0 25.6h114.7l-114.7 70.1v-70.1zm0 90.1L371 216.1h23.2v12.3l-147.5 90.1h-23.2v-12.3zm170.7-57.8v70.1H279.5l114.7-70.1zm-170.7 87.2h170.7v8.5c0 4.7-3.8 8.5-8.5 8.5H232.1c-4.7 0-8.5-3.8-8.5-8.5l-.1-8.5zm0 42.6c0-4.7 3.8-8.5 8.5-8.5h153.6c4.7 0 8.5 3.8 8.5 8.5v8.5H223.5v-8.5zm0 25.6h114.7l-114.7 70.1v-70.1zm0 90.1L371 403.8h23.2v12.3l-147.5 90.1h-23.2v-12.3zm170.7-57.8v70.1H279.5l114.7-70.1zm-170.7 87.2h170.7v8.5c0 4.7-3.8 8.5-8.5 8.5H232.1c-4.7 0-8.5-3.8-8.5-8.5l-.1-8.5zM35.8 190.5c0-4.7 3.8-8.5 8.5-8.5h153.6c4.7 0 8.5 3.8 8.5 8.5v8.5H35.8v-8.5zm0 25.6h114.7L35.8 286.2v-70.1zm0 90.1l147.5-90.1h23.2v12.3L59 318.5H35.8v-12.3zm170.7-57.8v70.1H91.7l114.8-70.1zM35.8 335.6h170.7v8.5c0 4.7-3.8 8.5-8.5 8.5H44.3c-4.7 0-8.5-3.8-8.5-8.5v-8.5zm0 42.6c0-4.7 3.8-8.5 8.5-8.5h153.6c4.7 0 8.5 3.8 8.5 8.5v8.5H35.8v-8.5zm0 25.6h114.7L35.8 473.9v-70.1zm0 90.1l147.5-90.1h23.2v12.3L59 506.2H35.8v-12.3zm170.7-57.8v70.1H91.7l114.8-70.1zM35.8 523.3h170.7v8.5c0 4.7-3.8 8.5-8.5 8.5H44.3c-4.7 0-8.5-3.8-8.5-8.5v-8.5zm418.1 136.5H-23.9v-17.1H454l-.1 17.1zM-6.9 625.7v-34.1h51.2v34.1H-6.9zm68.3 0v-34.1h110.9v34.1H61.4zm128 0v-34.1h51.2v34.1h-51.2zm68.3 0v-34.1h110.9v34.1H257.7zm128 0v-34.1h51.2v34.1h-51.2zm59.7-51.2H-23.9v-17.1H454v17.1h-8.6z"/></svg>
