<?xml version="1.0" encoding="iso-8859-1"?>
<!-- Generator: Adobe Illustrator 19.0.0, SVG Export Plug-In . SVG Version: 6.00 Build 0)  -->
<svg version="1.1" id="Capa_1" xmlns="http://www.w3.org/2000/svg" xmlns:xlink="http://www.w3.org/1999/xlink" x="0px" y="0px"
	 viewBox="0 0 512 512" style="enable-background:new 0 0 512 512;" xml:space="preserve" fill="#B50A0A">
<g>
	<g>
		<path d="M512,409.6v-17.067c-0.009-9.422-7.645-17.057-17.067-17.067h-44.239c1.012-2.733,1.544-5.62,1.572-8.533v-153.6
			c-0.02-6.319-2.394-12.404-6.658-17.067c4.265-4.663,6.639-10.748,6.658-17.067V25.6c-0.015-14.132-11.468-25.585-25.6-25.6
			h-153.6C266.748,0.02,260.663,2.394,256,6.658C251.337,2.394,245.252,0.02,238.933,0h-153.6
			c-14.132,0.015-25.585,11.468-25.6,25.6v153.6c0.02,6.319,2.394,12.404,6.658,17.067c-4.265,4.663-6.639,10.748-6.658,17.067
			v153.6c0.029,2.914,0.561,5.801,1.573,8.533h-44.24C7.645,375.476,0.009,383.112,0,392.533V409.6
			c0.009,9.422,7.645,17.057,17.067,17.067V460.8C7.645,460.809,0.009,468.445,0,477.867v17.067
			c0.009,9.422,7.645,17.057,17.067,17.067h477.867c9.422-0.009,17.057-7.645,17.067-17.067v-17.067
			c-0.009-9.422-7.645-17.057-17.067-17.067v-34.133C504.355,426.657,511.991,419.022,512,409.6z M264.533,25.6
			c0.006-4.71,3.823-8.527,8.533-8.533h153.6c4.71,0.006,8.527,3.823,8.533,8.533v8.533H264.533V25.6z M264.533,51.2h114.735
			l-114.735,70.116V51.2z M264.533,141.321L412.005,51.2H435.2v12.279L287.729,153.6h-23.195V141.321z M435.2,83.484V153.6H320.465
			L435.2,83.484z M264.533,170.667H435.2v8.533c-0.006,4.71-3.823,8.527-8.533,8.533h-153.6c-4.71-0.006-8.527-3.823-8.533-8.533
			V170.667z M264.533,213.333c0.006-4.71,3.823-8.527,8.533-8.533h153.6c4.71,0.006,8.527,3.823,8.533,8.533v8.533H264.533V213.333z
			 M264.533,238.933h114.735l-114.735,70.116V238.933z M264.533,329.055l147.471-90.121H435.2v12.279l-147.471,90.121h-23.195
			V329.055z M435.2,271.218v70.116H320.465L435.2,271.218z M264.533,358.4H435.2v8.533c-0.006,4.71-3.823,8.527-8.533,8.533h-153.6
			c-4.71-0.006-8.527-3.823-8.533-8.533V358.4z M76.8,25.6c0.006-4.71,3.823-8.527,8.533-8.533h153.6
			c4.71,0.006,8.527,3.823,8.533,8.533v8.533H76.8V25.6z M76.8,51.2h114.735L76.8,121.316V51.2z M76.8,141.321L224.271,51.2h23.195
			v12.279L99.995,153.6H76.8V141.321z M247.467,83.484V153.6H132.732L247.467,83.484z M76.8,170.667h170.667v8.533
			c-0.006,4.71-3.823,8.527-8.533,8.533h-153.6c-4.71-0.006-8.527-3.823-8.533-8.533V170.667z M76.8,213.333
			c0.006-4.71,3.823-8.527,8.533-8.533h153.6c4.71,0.006,8.527,3.823,8.533,8.533v8.533H76.8V213.333z M76.8,238.933h114.735
			L76.8,309.049V238.933z M76.8,329.055l147.471-90.121h23.195v12.279L99.995,341.333H76.8V329.055z M247.467,271.218v70.116
			H132.732L247.467,271.218z M76.8,358.4h170.667v8.533c-0.006,4.71-3.823,8.527-8.533,8.533h-153.6
			c-4.71-0.006-8.527-3.823-8.533-8.533V358.4z M494.946,494.933H17.067v-17.067h477.867L494.946,494.933z M34.133,460.8v-34.133
			h51.2V460.8H34.133z M102.4,460.8v-34.133h110.933V460.8H102.4z M230.4,460.8v-34.133h51.2V460.8H230.4z M298.667,460.8v-34.133
			H409.6V460.8H298.667z M426.667,460.8v-34.133h51.2V460.8H426.667z M486.4,409.6H17.067v-17.067h477.867l0.012,17.067H486.4z"/>
	</g>
</g>
<g>
</g>
<g>
</g>
<g>
</g>
<g>
</g>
<g>
</g>
<g>
</g>
<g>
</g>
<g>
</g>
<g>
</g>
<g>
</g>
<g>
</g>
<g>
</g>
<g>
</g>
<g>
</g>
<g>
</g>
</svg>
