<svg xmlns="http://www.w3.org/2000/svg" viewBox="-57 180.9 480 480"><path fill="#B50A0A" d="M415 564.9h-32v-64c0-4.4-3.6-8-8-8s-8 3.6-8 8v64H191v-176h56v56c0 4.4 3.6 8 8 8h48c4.4 0 8-3.6 8-8v-56h56v80c0 4.4 3.6 8 8 8s8-3.6 8-8v-88c0-4.4-3.6-8-8-8h-88v-184c0-4.4-3.6-8-8-8H87c-4.4 0-8 3.6-8 8v72c0 4.4 3.6 8 8 8s8-3.6 8-8v-64h56v56c0 4.4 3.6 8 8 8h48c4.4 0 8-3.6 8-8v-56h56v176H95v-80c0-4.4-3.6-8-8-8s-8 3.6-8 8v80H39c-4.4 0-8 3.6-8 8s3.6 8 8 8h16v56c0 4.4 3.6 8 8 8h48c4.4 0 8-3.6 8-8v-56h56v176H-1v-176h8c4.4 0 8-3.6 8-8s-3.6-8-8-8H-9c-4.4 0-8 3.6-8 8v184h-32c-4.4 0-8 3.6-8 8v80c0 4.4 3.6 8 8 8h48c4.4 0 8-3.6 8-8v-40h144v40c0 4.4 3.6 8 8 8h48c4.4 0 8-3.6 8-8v-40h56c4.4 0 8-3.6 8-8s-3.6-8-8-8H-41v-16h448v16h-64c-4.4 0-8 3.6-8 8s3.6 8 8 8h16v40c0 4.4 3.6 8 8 8h48c4.4 0 8-3.6 8-8v-80c0-4.4-3.6-8-8-8zm-216-320h-32v-48h32v48zm64 144h32v48h-32v-48zm-160 48H71v-48h32v48zm64 176h32v32h-32v-32zm-176 0v32h-32v-32h32zm416 32h-32v-32h32v32z"/><path fill="#B50A0A" d="M247 524.9c-4.4 0-8 3.6-8 8v8c0 4.4 3.6 8 8 8s8-3.6 8-8v-8c0-4.4-3.6-8-8-8zM215 524.9c-4.4 0-8 3.6-8 8v8c0 4.4 3.6 8 8 8s8-3.6 8-8v-8c0-4.4-3.6-8-8-8zM55 524.9c-4.4 0-8 3.6-8 8v8c0 4.4 3.6 8 8 8s8-3.6 8-8v-8c0-4.4-3.6-8-8-8zM23 524.9c-4.4 0-8 3.6-8 8v8c0 4.4 3.6 8 8 8s8-3.6 8-8v-8c0-4.4-3.6-8-8-8zM151 332.9c-4.4 0-8 3.6-8 8v8c0 4.4 3.6 8 8 8s8-3.6 8-8v-8c0-4.4-3.6-8-8-8zM119 332.9c-4.4 0-8 3.6-8 8v8c0 4.4 3.6 8 8 8s8-3.6 8-8v-8c0-4.4-3.6-8-8-8zM311 596.9h-8c-4.4 0-8 3.6-8 8s3.6 8 8 8h8c4.4 0 8-3.6 8-8s-3.6-8-8-8z"/></svg>
