<svg xmlns="http://www.w3.org/2000/svg" viewBox="-41 164.9 512 512"><path fill="#B50A0A" d="M44 562.1v55.8c-20 .6-35.9 17-36 37.1 0 3.8 3.1 6.9 6.9 6.9H325c3.8 0 6.9-3 6.9-6.8v-.1c0-20-16-36.5-36-37.1v-56.3c0-54.8-35.4-101.5-84.4-118.6 26.8-9.4 49.7-27.5 64.9-51.4 56.8 20.1 119.2-9.6 139.3-66.4s-9.6-119.2-66.4-139.3c-45.2-16-95.6-.6-124.2 38H15c-3.9 0-7 3.2-7 7.1 0 20.1 15.9 36.5 36 37.2v56.3c.1 53.4 33.9 100.9 84.2 118.6-50.5 17.7-84.3 65.5-84.2 119zm273 85.8H23.1c3.2-9.5 12.1-15.9 22.1-16h249.6c10.1.1 19 6.5 22.2 16zm-219.1-30l47.1-47.6c13.1-13.2 34.4-13.3 47.6-.3l47.3 47.9h-142zm215-424.2c52.5 0 95.1 42.6 95.1 95.1s-42.6 95.1-95.1 95.1c-52.5 0-95.1-42.6-95.1-95.1.1-52.5 42.6-95 95.1-95.1zM23.1 237.9h193.3c-2.7 5.2-5 10.5-6.9 16H45.2c-10-.1-18.9-6.5-22.1-16zM58 324.4v-56.5h147.8c-1.3 6.9-1.9 13.9-2 20.9 0 20.1 5.5 39.8 15.9 57.1H60c-1.3-7.1-2-14.3-2-21.5zm32.9 79.2c-12.3-12.3-21.6-27.2-27.3-43.7H230c9.3 10.9 20.7 19.8 33.5 26.2-20.7 31.1-55.6 49.8-93 49.8h-.8c-29.5.2-57.9-11.5-78.8-32.3zm78.6 46.3h.8c61.5 0 111.7 50.2 111.7 111.7v56.3h-22.4l-56.8-57.5-.4-.4c-18.7-18.5-48.9-18.3-67.4.4l-56.8 57.5H58v-55.8c-.2-61.8 49.7-112 111.5-112.2z"/><path fill="#B50A0A" d="M249.5 329.5l60 34.6c2.2 1.3 4.8 1.3 7 0l60-34.6c2.2-1.2 3.5-3.6 3.5-6.1v-69.3c0-2.5-1.4-4.8-3.5-6.1l-60-34.6c-2.2-1.3-4.8-1.3-7 0l-60 34.6c-2.2 1.3-3.5 3.6-3.5 6.1v69.3c0 2.5 1.3 4.8 3.5 6.1zM366 319.4L320 346v-53.1l46-26.6v53.1zm-7.1-65.3l-46 26.6-16.6-9.6 46-26.6 16.6 9.6zm-46-26.5l15.4 8.9-46 26.6-15.4-8.9 46-26.6zM260 266.3l46 26.6V346l-46-26.6v-53.1z"/></svg>
