<!--Generator: Adobe Illustrator 19.0.0, SVG Export Plug-In . SVG Version: 6.00 Build 0)--><svg version="1.1" id="Warstwa_1" xmlns="http://www.w3.org/2000/svg" x="0" y="0" viewBox="-141 334.5 312.1 173.4" xml:space="preserve"><style>.st0{fill:#b40a0a}</style><path id="XMLID_128_" class="st0" d="M-52.4 452.4c-6.6 0-11.8 5.2-11.8 11.7s5.3 11.7 11.8 11.7 11.8-5.2 11.8-11.7c-.1-6.5-5.3-11.7-11.8-11.7zm0 15.2c-2 0-3.6-1.6-3.6-3.6s1.6-3.6 3.6-3.6 3.6 1.6 3.6 3.6-1.7 3.6-3.6 3.6z"/><path id="XMLID_1_" d="M68.2 444.1c3.1-.2 13.5 2.8 17 8.3.9 1.4 2.5 2.2 4.2 2.2h24c.1 0 .6 0 .6-.2v-11.3c0-2.5-2.2-4.5-4.9-4.5-2.2 0-4-1.5-4-3.5s1.8-3.5 4-3.5c2.7 0 4.9-2 4.9-4.5v-4.2c0-1.1-.7-2.1-1.5-2.8l-.8-.5H71.1c-4.6 0-8.5-3.5-8.5-7.6v-19.3c0-2 1.9-3.1 4.1-3.1 0 0 29.6-.4 38.3-.3 7.2 0-12.7-16.9-18.3-21.5-.9-.7-2.1-1.2-3.3-1.2H53.9c-.1 0-.2.4-.2.6v72c0 2.4 2.1 4.4 4.8 4.5l8.3.2"/><path id="XMLID_127_" class="st0" d="M69.8 411.8c0 .1.5.6.6.6h32l-13-19H69.8v18.4z"/><path id="XMLID_123_" class="st0" d="M72.8 451.4h-.1c-6.5 0-11.7 5.4-11.7 11.8 0 6.5 5.3 11.8 11.8 11.8s11.8-5.3 11.8-11.8-5.3-11.8-11.8-11.8zm0 15.5c-2 0-3.6-1.8-3.6-3.7 0-2 1.6-3.7 3.6-3.7s3.6 1.8 3.6 3.7c0 1.9-1.6 3.7-3.6 3.7z"/><path id="XMLID_122_" class="st0" d="M-83.9 368.9H47.6v76H-83.9z"/><path id="XMLID_121_" d="M90.7 423.6H114v24.5H90.7z"/><path id="rect2991" d="M-20.5 386.7v4.8l-3.6-2.1-1.8 3.2 5.5 3.2v7.1l-6.1-3.6v-6.4h-3.7v4.2l-4.2-2.4-1.8 3.2 4.2 2.4-3.6 2.1 1.8 3.2 5.5-3.2 6.2 3.6-6.1 3.5-5.5-3.2-1.8 3.2 3.7 2.1-4.2 2.4 1.8 3.2 4.2-2.4v4.2h3.7v-6.3l6.2-3.6v7.3l-5.5 3.2 1.8 3.2 3.7-2.1v4.8h3.7v-4.8l3.6 2.1 1.8-3.2-5.5-3.2v-7.1l6.1 3.6v6.4h3.7v-4.2l4.2 2.4 1.8-3.2-4.2-2.4 3.6-2.1-1.8-3.2-5.5 3.2-6.2-3.6 6.2-3.6 5.5 3.2 1.8-3.2-3.7-2.1 4.2-2.4-1.8-3.2-4.2 2.4v-4.2h-3.7v6.3l-6.2 3.6v-7.1l5.5-3.2-1.8-3.2-3.7 2.1v-4.8h-3.8v-.1z"/><path class="st0" d="M-79.4 459.1c0 .1 0 .4.1.4h8.3c.6-3 1.9-6 3.8-8h-12.2v7.6zM36.9 448c0 2-1.6 3.5-3.6 3.5h-69.9c1.9 2 3.2 5 3.8 8h89.9c.6-3 1.9-6 3.8-8H48.8c-2 0-3.6-1.5-3.6-3.5 0-1.6 1-2.8 2.3-3.3h-13c1.5.5 2.4 1.7 2.4 3.3z"/></svg>
