<?xml version="1.0" encoding="utf-8"?>
<!-- Generator: Adobe Illustrator 19.0.0, SVG Export Plug-In . SVG Version: 6.00 Build 0)  -->
<svg version="1.1" id="Warstwa_1" xmlns="http://www.w3.org/2000/svg" xmlns:xlink="http://www.w3.org/1999/xlink" x="0px" y="0px"
	 viewBox="0 0 312.1 173.4" style="enable-background:new 0 0 312.1 173.4;" xml:space="preserve">
<style type="text/css">
	.st0{fill:#B40A0A;}
</style>
<g id="XMLID_159_">
	<path id="XMLID_166_" class="st0" d="M95,121h-0.1c-6.5,0-11.7,5.1-11.7,11.6c0,6.5,5.3,11.7,11.8,11.7s11.8-5.2,11.8-11.7
		C106.8,126.2,101.5,121,95,121z M95,136c-2,0-3.6-1.5-3.6-3.5s1.6-3.5,3.6-3.5h0c2,0,3.6,1.5,3.6,3.5S97,136,95,136z"/>
	<path id="XMLID_165_" class="st0" d="M225,82.3c0,0.1,0.1,0.7,0.3,0.7H259l-7.7-16H225V82.3z"/>
	<path id="XMLID_161_" class="st0" d="M67,128.6c0,0.1,0,0.4,0.1,0.4h8.3c0.6-3,1.9-6,3.8-8H67V128.6z"/>
	<path id="XMLID_160_" class="st0" d="M191.6,117.5c0-2,1.6-3.5,3.6-3.5h8.8V28.3c0-0.1-1-0.3-1.1-0.3H49.5c-0.1,0,0.5,0.2,0.5,0.3
		v84.8c0,0.1-0.6,0.9-0.5,0.9h130.2c2,0,3.6,1.5,3.6,3.5c0,2-1.6,3.5-3.6,3.5h-69.9c1.9,2,3.2,5,3.8,8h89.9c0.6-3,1.9-6,3.8-8h-12.1
		C193.2,121,191.6,119.5,191.6,117.5z"/>
	<path id="XMLID_156_" class="st0" d="M222.3,122h-0.1c-6.5,0-11.7,5.3-11.7,11.8c0,6.5,5.3,11.8,11.8,11.8s11.8-5.3,11.8-11.8
		C234,127.3,228.7,122,222.3,122z M222.2,137.4c-2,0-3.6-1.7-3.6-3.7s1.6-3.7,3.6-3.7h0c2,0,3.6,1.7,3.6,3.7
		S224.2,137.4,222.2,137.4z"/>
	<path id="XMLID_132_" d="M260.6,89.9h-36.3c-4.2,0-7.6-3.4-7.6-7.6V63c0-2,1.7-3.1,3.7-3.1c0,0,26.5-0.4,34.3-0.3
		c7.4,0-17.1-22.2-17.6-22.7c0,0,0,0,0,0h-28.2c-0.1,0-0.1,0.4-0.1,0.6v0v76.4c0,0,0,0.1,0.1,0.1h11.6c0,0,0-0.3,0.1-0.3
		c7.8,0,14.6,4.3,17.5,11.3c0,0,0,0,0,0H262c0.4,0,0.7-0.3,0.7-0.7v-15.3c0,0,0-0.1-0.1-0.1h-4.3c-2,0-3.7-1.5-3.7-3.5
		c0-2,1.6-3.5,3.6-3.5h4.4c0,0,0.1,0,0.1-0.1v-8.6c0-1.1-0.6-2.1-1.4-2.8c0,0,0,0,0,0L260.6,89.9z"/>
</g>
</svg>
