<!--Generator: Adobe Illustrator 19.0.0, SVG Export Plug-In . SVG Version: 6.00 Build 0)--><svg xmlns="http://www.w3.org/2000/svg" viewBox="-141 334.5 312.1 173.4"><path fill="#B40A0A" d="M-46 455.5c-6.6 0-11.8 5.1-11.8 11.6s5.3 11.7 11.8 11.7 11.8-5.2 11.8-11.7c0-6.4-5.3-11.6-11.8-11.6zm0 15c-2 0-3.6-1.5-3.6-3.5s1.6-3.5 3.6-3.5 3.6 1.5 3.6 3.5-1.6 3.5-3.6 3.5zM84 416.8c0 .1.1.7.3.7H118l-7.7-16H84v15.3zM-74 463.1c0 .1 0 .4.1.4h8.3c.6-3 1.9-6 3.8-8H-74v7.6z"/><path fill="#B40A0A" d="M50.6 452c0-2 1.6-3.5 3.6-3.5H63v-85.7c0-.1-1-.3-1.1-.3H-91.5c-.1 0 .5.2.5.3v84.8c0 .1-.6.9-.5.9H38.7c2 0 3.6 1.5 3.6 3.5s-1.6 3.5-3.6 3.5h-69.9c1.9 2 3.2 5 3.8 8h89.9c.6-3 1.9-6 3.8-8H54.2c-2 0-3.6-1.5-3.6-3.5zM81.3 456.5h-.1c-6.5 0-11.7 5.3-11.7 11.8s5.3 11.8 11.8 11.8 11.8-5.3 11.8-11.8c-.1-6.5-5.4-11.8-11.8-11.8zm-.1 15.4c-2 0-3.6-1.7-3.6-3.7s1.6-3.7 3.6-3.7 3.6 1.7 3.6 3.7-1.6 3.7-3.6 3.7z"/><path d="M119.6 424.4H83.3c-4.2 0-7.6-3.4-7.6-7.6v-19.3c0-2 1.7-3.1 3.7-3.1 0 0 26.5-.4 34.3-.3 7.4 0-17.1-22.2-17.6-22.7H67.9c-.1 0-.1.4-.1.6v76.4s0 .1.1.1h11.6s0-.3.1-.3c7.8 0 14.6 4.3 17.5 11.3H121c.4 0 .7-.3.7-.7v-15.3s0-.1-.1-.1h-4.3c-2 0-3.7-1.5-3.7-3.5s1.6-3.5 3.6-3.5h4.4s.1 0 .1-.1v-8.6c0-1.1-.6-2.1-1.4-2.8l-.7-.5z"/></svg>
