<!--Generator: Adobe Illustrator 19.0.0, SVG Export Plug-In . SVG Version: 6.00 Build 0)--><svg xmlns="http://www.w3.org/2000/svg" viewBox="-141 334.5 312.1 173.4"><path fill="#B40A0A" d="M-31.4 455.5c-6.6 0-11.8 5.1-11.8 11.6s5.3 11.7 11.8 11.7 11.8-5.2 11.8-11.7c-.1-6.4-5.3-11.6-11.8-11.6zm0 15c-2 0-3.6-1.5-3.6-3.5s1.6-3.5 3.6-3.5 3.6 1.5 3.6 3.5-1.6 3.5-3.6 3.5zM99 416.8c0 .1.5.7.6.7h23.3l-5.3-16H99v15.3zM-62.2 455.5c-6.6 0-11.8 5.1-11.8 11.6s5.3 11.7 11.8 11.7 11.8-5.2 11.8-11.7c-.1-6.4-5.4-11.6-11.8-11.6zm-.1 15c-2 0-3.6-1.5-3.6-3.5s1.6-3.5 3.6-3.5 3.6 1.5 3.6 3.5-1.6 3.5-3.6 3.5zM-90 463.1c0 .1.6.4.7.4h8.3c.6-3 1.9-6 3.8-8H-90v7.6z"/><path fill="#B40A0A" d="M65.2 452c0-2 1.6-3.5 3.6-3.5H77v-85.7c0-.1-.4-.3-.5-.3h-177.4c-.1 0-.1.2-.1.3v84.8c0 .1 0 .9.1.9H53.3c2 0 3.6 1.5 3.6 3.5s-1.6 3.5-3.6 3.5h-69.9c1.9 2 3.2 5 3.8 8h89.9c.6-3 1.9-6 3.8-8H68.8c-2 0-3.6-1.5-3.6-3.5z"/><path d="M129 424.5H99.6c-4.1 0-7.6-3.6-7.6-7.7v-19.3c0-2 1.8-3 3.8-3h19.4l-2.7-9H84.3c-.1 0-.2.3-.2.4v62.6h11.7s0-.3.1-.3c7.8 0 14.6 4.3 17.5 11.3h17.2c.1 0 .5-.1.5-.3v-15.7h-4.4c-2 0-3.6-1.5-3.6-3.5s1.6-3.5 3.6-3.5h4.4v-8.8c0-1.1-.6-2-1.3-2.8l-.8-.4z"/><path fill="#B40A0A" d="M95.8 456.5h-.1c-6.5 0-11.7 5.3-11.7 11.8s5.3 11.8 11.8 11.8 11.8-5.3 11.8-11.8-5.3-11.8-11.8-11.8zm0 15.4c-2 0-3.6-1.7-3.6-3.7s1.6-3.7 3.6-3.7 3.6 1.7 3.6 3.7-1.6 3.7-3.6 3.7z"/></svg>
