<?xml version="1.0" encoding="utf-8"?>
<!-- Generator: Adobe Illustrator 19.0.0, SVG Export Plug-In . SVG Version: 6.00 Build 0)  -->
<svg version="1.1" id="Warstwa_1" xmlns="http://www.w3.org/2000/svg" xmlns:xlink="http://www.w3.org/1999/xlink" x="0px" y="0px"
	 viewBox="-141 334.5 312.1 173.4" style="enable-background:new -141 334.5 312.1 173.4;" xml:space="preserve">
<style type="text/css">
	.st0{fill:#B40A0A;}
</style>
<g>
	<path id="XMLID_128_" class="st0" d="M-52.4,452.4L-52.4,452.4c-6.6,0-11.8,5.2-11.8,11.7s5.3,11.7,11.8,11.7s11.8-5.2,11.8-11.7
		C-40.7,457.6-45.9,452.4-52.4,452.4z M-52.4,467.6c-2,0-3.6-1.6-3.6-3.6s1.6-3.6,3.6-3.6l0,0c2,0,3.6,1.6,3.6,3.6
		S-50.5,467.6-52.4,467.6z"/>
	<path id="XMLID_1_" d="M68.2,444.1c3.1-0.2,13.5,2.8,17,8.3c0.9,1.4,2.5,2.2,4.2,2.2h24c0.1,0,0.6,0,0.6-0.2v-11.3
		c0-2.5-2.2-4.5-4.9-4.5l0,0c-2.2,0-4-1.5-4-3.5s1.8-3.5,4-3.5l0,0c2.7,0,4.9-2,4.9-4.5v-4.2c0-1.1-0.7-2.1-1.5-2.8l-0.8-0.5H71.1
		c-4.6,0-8.5-3.5-8.5-7.6v-19.3c0-2,1.9-3.1,4.1-3.1c0,0,29.6-0.4,38.3-0.3c7.2,0-12.7-16.9-18.3-21.5c-0.9-0.7-2.1-1.2-3.3-1.2
		H53.9c-0.1,0-0.2,0.4-0.2,0.6l0,0v72c0,2.4,2.1,4.4,4.8,4.5l8.3,0.2"/>
	<path id="XMLID_127_" class="st0" d="M69.8,411.8c0,0.1,0.5,0.6,0.6,0.6h32l-13-19H69.8V411.8z"/>
	<path id="XMLID_123_" class="st0" d="M72.8,451.4h-0.1c-6.5,0-11.7,5.4-11.7,11.8c0,6.5,5.3,11.8,11.8,11.8s11.8-5.3,11.8-11.8
		S79.3,451.4,72.8,451.4z M72.8,466.9c-2,0-3.6-1.8-3.6-3.7c0-2,1.6-3.7,3.6-3.7l0,0c2,0,3.6,1.8,3.6,3.7
		C76.4,465.1,74.8,466.9,72.8,466.9z"/>
	<rect id="XMLID_122_" x="-83.9" y="368.9" class="st0" width="131.5" height="76"/>
	<rect id="XMLID_121_" x="90.7" y="423.6" width="23.3" height="24.5"/>
	<path id="rect2991" d="M-20.5,386.7v4.8l-3.6-2.1l-1.8,3.2l5.5,3.2v7.1l-6.1-3.6v-6.4h-3.7v4.2l-4.2-2.4l-1.8,3.2l4.2,2.4l-3.6,2.1
		l1.8,3.2l5.5-3.2l6.2,3.6l-6.1,3.5l-5.5-3.2l-1.8,3.2l3.7,2.1L-36,414l1.8,3.2l4.2-2.4v4.2h3.7v-6.3l6.2-3.6v7.3l-5.5,3.2l1.8,3.2
		l3.7-2.1v4.8h3.7v-4.8l3.6,2.1l1.8-3.2l-5.5-3.2v-7.1l6.1,3.6v6.4h3.7v-4.2l4.2,2.4l1.8-3.2l-4.2-2.4l3.6-2.1l-1.8-3.2l-5.5,3.2
		l-6.2-3.6l6.2-3.6l5.5,3.2l1.8-3.2l-3.7-2.1l4.2-2.4l-1.8-3.2l-4.2,2.4v-4.2h-3.7v6.3l-6.2,3.6v-7.1l5.5-3.2l-1.8-3.2l-3.7,2.1
		v-4.8h-3.8V386.7z"/>
	<path class="st0" d="M-79.4,459.1c0,0.1,0,0.4,0.1,0.4h8.3c0.6-3,1.9-6,3.8-8h-12.2V459.1z"/>
	<path class="st0" d="M36.9,448c0,2-1.6,3.5-3.6,3.5h-69.9c1.9,2,3.2,5,3.8,8h89.9c0.6-3,1.9-6,3.8-8H48.8c-2,0-3.6-1.5-3.6-3.5
		c0-1.6,1-2.8,2.3-3.3h-13C36,445.2,36.9,446.4,36.9,448z"/>
</g>
</svg>
