<!--Generator: Adobe Illustrator 19.0.0, SVG Export Plug-In . SVG Version: 6.00 Build 0)--><svg xmlns="http://www.w3.org/2000/svg" viewBox="-87 334.5 420.3 173.4"><style>.st0{fill:#b40a0a}</style><g id="Warstwa_1"><path id="XMLID_116_" class="st0" d="M175.7 455.5h-.1c-6.5 0-11.7 5.1-11.7 11.6s5.3 11.7 11.8 11.7 11.8-5.2 11.8-11.7c-.1-6.4-5.3-11.6-11.8-11.6zm-.1 15c-2 0-3.6-1.5-3.6-3.5s1.6-3.5 3.6-3.5 3.6 1.5 3.6 3.5-1.6 3.5-3.6 3.5z"/><path id="XMLID_115_" class="st0" d="M285.3 414.5h17.6l-2-10h-15.6v10z"/><path id="XMLID_112_" class="st0" d="M144.8 455.5h-.1c-6.5 0-11.7 5.1-11.7 11.6s5.3 11.7 11.8 11.7 11.8-5.2 11.8-11.7c0-6.4-5.3-11.6-11.8-11.6zm0 15c-2 0-3.6-1.5-3.6-3.5s1.6-3.5 3.6-3.5 3.6 1.5 3.6 3.5-1.6 3.5-3.6 3.5z"/><path id="XMLID_111_" class="st0" d="M116.3 463.1c0 .1.3.4.4.4h9.3c.6-3 1.9-6 3.8-8h-13.5v7.6z"/><path id="XMLID_110_" class="st0" d="M234.3 452c0-2 1.6-3.5 3.6-3.5h8.5v-85.7c0-.1-.6-.3-.8-.3H68.2c-.1 0 .1.2.1.3v84.8c0 .1-.3.9-.1.9h154.2c2 0 3.6 1.5 3.6 3.5s-1.6 3.5-3.6 3.5h-31.9c1.9 2 3.2 5 3.8 8h51.9c.6-3 1.9-6 3.8-8h-12.1c-2 0-3.6-1.5-3.6-3.5z"/><path id="XMLID_107_" class="st0" d="M264.9 456.5h-.1c-6.5 0-11.7 5.3-11.7 11.8s5.3 11.8 11.8 11.8 11.8-5.3 11.8-11.8c0-6.5-5.3-11.8-11.8-11.8zm0 15.4c-2 0-3.6-1.7-3.6-3.7s1.6-3.7 3.6-3.7 3.6 1.7 3.6 3.7-1.6 3.7-3.6 3.7z"/><path id="XMLID_106_" class="st0" d="M-64.8 362.4h134v86h-134z"/><path id="XMLID_103_" class="st0" d="M-2.3 455.5c-6.6 0-11.8 5.1-11.8 11.6s5.3 11.7 11.8 11.7 11.8-5.2 11.8-11.7c-.1-6.4-5.3-11.6-11.8-11.6zm-.1 15c-2 0-3.6-1.5-3.6-3.5s1.6-3.5 3.6-3.5 3.6 1.5 3.6 3.5-1.6 3.5-3.6 3.5z"/><path id="XMLID_100_" class="st0" d="M-33.2 455.5c-6.6 0-11.8 5.1-11.8 11.6s5.3 11.7 11.8 11.7 11.8-5.2 11.8-11.7c0-6.4-5.3-11.6-11.8-11.6zm0 15c-2 0-3.6-1.5-3.6-3.5s1.6-3.5 3.6-3.5 3.6 1.5 3.6 3.5-1.6 3.5-3.6 3.5z"/><path id="XMLID_97_" class="st0" d="M29.2 455.5H29c-6.5 0-11.7 5.1-11.7 11.6s5.3 11.7 11.8 11.7 11.8-5.2 11.8-11.7c0-6.4-5.2-11.6-11.7-11.6zm-.1 15.1c-2 0-3.6-1.5-3.6-3.5s1.6-3.5 3.6-3.5 3.6 1.5 3.6 3.5-1.6 3.5-3.6 3.5z"/><path id="XMLID_96_" class="st0" d="M-60.7 462.1c0 .1.3.4.4.4h8.3c.6-3 1.9-6 3.8-8h-12.5v7.6z"/><path id="XMLID_95_" class="st0" d="M58.3 463.1c0 .1-.9.4-1.1.4h-8.3c-.6-3-1.9-6-3.8-8h13.2v7.6z"/></g><path d="M308.1 447.5c-1.6 0-2.8-1.3-2.8-2.8 0-1.6 1.3-2.8 2.8-2.8h2.5v-22.3c0-1.4-1.1-2.5-2.5-2.5H284c-1.4 0-2.5-1.1-2.5-2.5v-10c0-1.4 1.1-2.5 2.5-2.5h18c1.4 0 2.5-1.1 2.5-2.5v-1.2c0-.7-.3-1.4-.8-1.8l-3-2.8c-.4-.4-.9-.6-1.4-.7l-14.3-1.5c-.3 0-.6-.1-.9-.3l-7-3.6c-.2-.1-2.1-.8-3.7-1.4l-13.3-2.5c-1.2-.2-2-1.3-2-2.5 0-1.4-1.1-2.5-2.5-2.5h-3.9V446c0 1.4 1.1 2.5 2.5 2.5h6.7c5.1 0 10.2.6 15.2 1.7h.1c4.8 1.1 11.4 5 14.7 8.6l1.9 2.1c.5.5 1.2.8 1.9.8h13.7c1.4 0 2.5-1.1 2.5-2.5v-11.8h-2.8z" id="Warstwa_2"/></svg>
