<?xml version="1.0" encoding="utf-8"?>
<!-- Generator: Adobe Illustrator 19.0.0, SVG Export Plug-In . SVG Version: 6.00 Build 0)  -->
<svg version="1.1" id="Warstwa_1" xmlns="http://www.w3.org/2000/svg" xmlns:xlink="http://www.w3.org/1999/xlink" x="0px" y="0px"
	 viewBox="0 0 312.1 173.4" style="enable-background:new 0 0 312.1 173.4;" xml:space="preserve">
<style type="text/css">
	.st0{fill:#B40A0A;}
</style>
<g id="XMLID_119_">
	<path id="XMLID_385_" class="st0" d="M109.6,121h-0.1c-6.5,0-11.7,5.1-11.7,11.6c0,6.5,5.3,11.7,11.8,11.7s11.8-5.2,11.8-11.7
		C121.3,126.2,116.1,121,109.6,121z M109.6,136c-2,0-3.6-1.5-3.6-3.5s1.6-3.5,3.6-3.5h0c2,0,3.6,1.5,3.6,3.5S111.6,136,109.6,136z"
		/>
	<path id="XMLID_386_" class="st0" d="M240,82.3c0,0.1,0.5,0.7,0.6,0.7h23.3l-5.3-16H240V82.3z"/>
	<path id="XMLID_389_" class="st0" d="M78.8,121h-0.1c-6.5,0-11.7,5.1-11.7,11.6c0,6.5,5.3,11.7,11.8,11.7s11.8-5.2,11.8-11.7
		C90.5,126.2,85.2,121,78.8,121z M78.7,136c-2,0-3.6-1.5-3.6-3.5s1.6-3.5,3.6-3.5h0c2,0,3.6,1.5,3.6,3.5S80.7,136,78.7,136z"/>
	<path id="XMLID_390_" class="st0" d="M51,128.6c0,0.1,0.6,0.4,0.7,0.4H60c0.6-3,1.9-6,3.8-8H51V128.6z"/>
	<path id="XMLID_391_" class="st0" d="M206.2,117.5c0-2,1.6-3.5,3.6-3.5h8.2V28.3c0-0.1-0.4-0.3-0.5-0.3H40.1C40,28,40,28.2,40,28.3
		v84.8c0,0.1,0,0.9,0.1,0.9h154.2c2,0,3.6,1.5,3.6,3.5c0,2-1.6,3.5-3.6,3.5h-69.9c1.9,2,3.2,5,3.8,8h89.9c0.6-3,1.9-6,3.8-8h-12.1
		C207.8,121,206.2,119.5,206.2,117.5z"/>
	<path id="XMLID_395_" d="M270,90h-29.4c-4.1,0-7.6-3.6-7.6-7.7V63c0-2,1.8-3,3.8-3h19.4l-2.7-9h-28.2c-0.1,0-0.2,0.3-0.2,0.4v0V114
		h11.7c0,0,0-0.3,0.1-0.3c7.8,0,14.6,4.3,17.5,11.3h17.2c0.1,0,0.5-0.1,0.5-0.3V109h-4.4c-2,0-3.6-1.5-3.6-3.5c0-2,1.6-3.5,3.6-3.5
		h4.4v-8.8c0-1.1-0.6-2-1.3-2.8L270,90z"/>
	<path id="XMLID_133_" class="st0" d="M236.8,122h-0.1c-6.5,0-11.7,5.3-11.7,11.8c0,6.5,5.3,11.8,11.8,11.8s11.8-5.3,11.8-11.8
		C248.6,127.3,243.3,122,236.8,122z M236.8,137.4c-2,0-3.6-1.7-3.6-3.7s1.6-3.7,3.6-3.7h0c2,0,3.6,1.7,3.6,3.7
		S238.8,137.4,236.8,137.4z"/>
</g>
</svg>
