<svg xmlns="http://www.w3.org/2000/svg" id="Capa_1" x="0" y="0" version="1.1" viewBox="-339 141.5 279.5 279.5" xml:space="preserve"><style>.st0{fill:#000}</style><path d="M-173.9 143c-29.3 0-56 11-76.3 29.2 4.5 7.1 7 15.5 7.3 24 .1 3.9.3 7.7.7 11.6 15.4-21.1 40.3-34.9 68.3-34.9 46.6 0 84.5 37.9 84.5 84.5 0 46.1-37.1 83.6-83 84.4 4.2 3.5 8.5 6.8 13 10 6.1 4.3 11 9.9 14.5 16.3 49.1-12.9 85.5-57.6 85.5-110.7-.1-63-51.4-114.4-114.5-114.4zM-176.7 376.4c-13.1-10.4-21.2-17.4-32.9-28.2-3.4-3.2-7.6-5.2-11.9-5.2-3.3 0-6.6 1.1-9.2 3.3-2.8 2.3-5.5 4.7-8.3 7-22.5-26.7-39.2-57.9-49-91.4 3.5-1 6.9-2 10.4-3 7.7-2.3 11.3-10.5 10.1-18.7-2.4-17.8-3.8-26.7-5.3-43-.8-8.4-6.3-15.6-14.3-16.1-1.2-.1-2.5-.2-3.7-.2-29.7 0-55.6 34.4-46 76.6 11.9 52.2 37.7 100.2 74.6 139 15.1 15.9 33.6 23 50.3 23 17.6 0 33.3-8 40.8-22.2 3.9-6.9.9-15.6-5.6-20.9z"/><path d="M-208.4 259.6c-7.9 7.3-13.1 13.1-15.8 17.6-1.9 3.2-3.3 6.6-4.2 10-.4 1.6 0 3.3 1 4.6 1 1.3 2.6 2.1 4.3 2.1h37.8c4.6 0 8.4-3.8 8.4-8.4s-3.8-8.4-8.4-8.4h-17.1c.1-.2.3-.3.4-.5 1.1-1.3 3.8-3.9 8.1-7.8 4.5-4.1 7.5-7.2 9.2-9.4 2.6-3.3 4.6-6.6 5.8-9.7 1.2-3.1 1.9-6.5 1.9-10 0-6.2-2.3-11.5-6.7-15.7-4.4-4.2-10.5-6.3-18.1-6.3-6.9 0-12.7 1.8-17.4 5.4-2.8 2.1-5 5.1-6.4 8.8-1 2.5-.7 5.4.7 7.7s3.9 3.8 6.5 4.1h.9c3.8 0 7.1-2.4 8.4-6 .4-1.1.9-2 1.5-2.7 1.3-1.3 3.1-2 5.4-2 2.4 0 4.1.6 5.4 1.9 1.3 1.3 1.9 3.1 1.9 5.7 0 2.4-.8 4.8-2.5 7.3-.7 1.6-3.4 4.7-11 11.7zM-132.8 217.9h-6.3c-1.8 0-3.5.9-4.5 2.4l-29.2 42.7c-.9 1.2-1.3 2.7-1.3 4.2v6.9c0 3 2.4 5.4 5.4 5.4h23.9v5.8c0 4.8 3.9 8.7 8.7 8.7 4.8 0 8.7-3.9 8.7-8.7v-5.8h.9c4.4 0 8-3.6 8-8s-3.6-8-8-8h-.9v-40.1c.1-3-2.4-5.5-5.4-5.5zm-11.8 45.6h-10.7l10.7-16v16z" class="st0"/></svg>
